<?xml version="1.0" standalone="no"?>
<!DOCTYPE svg PUBLIC "-//W3C//DTD SVG 20010904//EN"
 "http://www.w3.org/TR/2001/REC-SVG-20010904/DTD/svg10.dtd">
<svg version="1.0" xmlns="http://www.w3.org/2000/svg"
 width="150.000000pt" height="150.000000pt" viewBox="0 0 150.000000 150.000000"
 preserveAspectRatio="xMidYMid meet">

<g transform="translate(0.000000,150.000000) scale(0.100000,-0.100000)"
fill="#000000" stroke="none">
<path d="M1 1258 c1 -134 4 -232 8 -218 6 20 12 24 35 22 25 -3 27 -1 21 18
-7 22 -5 23 49 18 31 -3 59 -1 62 4 3 4 0 8 -5 8 -6 0 -11 9 -11 20 0 20 1 20
32 4 25 -13 36 -14 50 -5 11 7 18 7 18 1 0 -5 -4 -10 -10 -10 -5 0 -10 -4 -10
-10 0 -15 30 -12 36 4 3 8 12 12 20 9 19 -7 18 26 -2 55 -8 12 -12 22 -8 22
13 0 74 -42 74 -50 0 -5 25 0 57 11 33 11 83 19 120 19 55 0 67 -3 90 -26 14
-14 23 -19 20 -11 -4 11 6 9 39 -8 38 -19 56 -22 111 -18 48 4 68 1 74 -9 6
-9 9 -9 9 -1 0 7 -8 17 -17 22 -10 6 -13 11 -6 11 6 0 14 -4 18 -9 3 -5 19
-12 35 -16 17 -4 28 -10 25 -15 -3 -4 1 -10 9 -13 8 -3 21 4 30 18 13 20 14
28 4 44 -15 24 -4 39 16 22 12 -10 18 -8 31 13 23 35 39 22 19 -16 -14 -28
-14 -32 0 -46 15 -15 16 -14 16 10 0 30 23 53 45 44 26 -9 29 -37 10 -73 -14
-25 -16 -36 -7 -43 7 -6 10 -7 7 -3 -3 3 4 12 15 20 11 8 17 20 14 28 -4 9 -1
15 7 15 7 0 21 8 32 17 20 18 20 17 14 -12 -3 -17 -2 -37 4 -45 6 -11 9 -6 9
18 0 28 3 32 25 32 15 0 28 -7 32 -16 7 -20 -9 -49 -28 -50 -8 0 -21 -4 -29
-7 -8 -4 -24 -5 -34 -4 -10 1 -21 -4 -23 -11 -3 -8 1 -10 13 -5 11 4 15 3 11
-4 -4 -6 0 -14 9 -17 10 -4 13 -2 8 7 -5 9 -4 9 7 0 16 -15 83 -18 74 -3 -3 6
1 7 9 4 9 -3 16 -1 16 5 0 6 10 11 23 11 31 0 117 -42 117 -57 0 -17 -10 -16
-34 2 -23 18 -126 21 -126 4 0 -6 6 -9 14 -6 7 3 23 -7 35 -23 14 -20 26 -27
38 -23 9 4 14 2 10 -3 -3 -6 -2 -16 3 -24 8 -12 14 -10 37 13 25 24 26 27 8
28 -20 0 -20 1 0 9 29 12 65 12 65 -1 0 -6 -7 -9 -14 -6 -10 4 -23 -7 -37 -29
-21 -34 -21 -36 -3 -49 15 -11 16 -14 4 -15 -13 0 -13 -1 0 -10 8 -5 11 -10 5
-10 -5 0 -3 -4 5 -10 8 -5 11 -12 7 -17 -4 -4 -17 -1 -29 6 -11 7 -17 8 -13 2
5 -9 69 -41 81 -41 2 0 4 47 4 105 0 97 -1 105 -19 105 -11 0 -26 7 -35 15 -8
8 -19 15 -25 15 -17 0 -13 20 4 27 9 3 23 -1 33 -9 43 -37 42 -41 42 216 l0
246 -750 0 -750 0 1 -242z m749 -128 c0 -5 -4 -10 -10 -10 -5 0 -10 5 -10 10
0 6 5 10 10 10 6 0 10 -4 10 -10z m55 0 c-27 -12 -35 -12 -35 0 0 6 12 10 28
9 24 0 25 -1 7 -9z"/>
<path d="M455 1156 c-53 -16 -86 -35 -64 -36 9 0 19 3 22 7 7 7 17 8 100 19
26 3 47 10 47 15 0 13 -58 10 -105 -5z"/>
<path d="M1080 1140 c0 -5 5 -10 10 -10 6 0 10 5 10 10 0 6 -4 10 -10 10 -5 0
-10 -4 -10 -10z"/>
<path d="M670 1100 c-10 -7 -11 -10 -2 -10 7 0 24 -24 39 -54 24 -50 26 -58
14 -96 -14 -46 -34 -59 -63 -41 -16 10 -19 10 -16 -1 3 -7 18 -13 33 -13 22 0
35 8 51 33 l22 32 22 -35 c15 -24 29 -35 46 -35 25 0 31 9 14 26 -5 5 -20 31
-34 58 -19 38 -22 54 -15 79 17 60 60 74 78 26 5 -16 10 -19 15 -10 10 15 -30
51 -55 51 -10 0 -25 -10 -33 -22 -15 -21 -21 -18 -16 7 1 6 -5 4 -12 -4 -10
-11 -10 -14 0 -18 14 -5 17 -33 3 -33 -5 0 -13 9 -16 20 -13 42 -45 59 -75 40z"/>
<path d="M1010 1097 c0 -10 8 -17 18 -17 9 0 13 4 7 8 -5 4 -13 11 -17 16 -5
5 -8 2 -8 -7z"/>
<path d="M1235 1100 c-3 -5 -1 -10 4 -10 6 0 11 5 11 10 0 6 -2 10 -4 10 -3 0
-8 -4 -11 -10z"/>
<path d="M1055 1090 c-3 -5 1 -10 10 -10 9 0 13 5 10 10 -3 6 -8 10 -10 10 -2
0 -7 -4 -10 -10z"/>
<path d="M805 1079 c-23 -36 -21 -66 6 -121 21 -41 33 -56 44 -52 22 9 18 -14
-4 -26 -38 -20 -69 -12 -87 21 l-16 31 -18 -30 c-15 -24 -27 -31 -57 -34 -41
-3 -55 -25 -30 -49 14 -14 17 -22 17 -39 0 -5 4 -10 10 -10 5 0 7 6 4 13 -3 8
6 18 20 25 19 9 27 8 36 -3 10 -12 9 -16 -3 -21 -13 -4 -10 -13 14 -49 16 -23
29 -48 29 -54 0 -25 18 -8 40 38 12 28 37 65 55 83 32 34 65 45 65 22 0 -7 9
-18 20 -24 12 -6 17 -16 13 -27 -6 -14 -7 -14 -18 0 -9 13 -14 14 -24 4 -9 -9
-14 -9 -21 3 -15 24 -23 -13 -17 -78 4 -31 6 -71 7 -89 0 -25 4 -31 15 -27 11
5 13 10 5 19 -14 17 -4 40 26 53 13 7 24 18 24 26 0 8 6 19 13 23 18 11 39 62
31 75 -4 7 -2 8 4 4 7 -4 12 -27 12 -51 0 -38 2 -42 19 -38 23 6 41 -22 40
-63 -2 -124 -2 -122 -34 -118 -16 2 -31 8 -33 14 -2 5 -12 10 -22 10 -10 0
-21 7 -24 16 -7 18 2 37 14 29 8 -5 20 17 27 49 2 14 -1 17 -14 11 -10 -4 -27
-8 -37 -10 -26 -2 -33 -25 -9 -25 14 0 15 -2 4 -9 -8 -5 -11 -16 -7 -29 6 -16
1 -24 -23 -36 -46 -24 -80 -21 -91 9 -5 14 -14 25 -20 25 -5 0 -10 7 -10 16 0
8 4 13 9 9 5 -3 8 14 6 40 -4 71 11 53 18 -20 7 -78 11 -85 42 -85 22 0 23 3
15 23 -5 12 -13 64 -18 115 -6 74 -5 97 6 113 8 11 20 18 28 15 8 -3 14 -1 14
4 0 17 -36 11 -52 -7 -18 -21 -78 -126 -78 -137 0 -4 5 -4 10 -1 15 9 12 -1
-10 -45 -21 -42 -29 -47 -47 -29 -23 23 -25 -13 -2 -37 21 -23 21 -25 5 -43
-12 -13 -15 -27 -10 -45 5 -21 3 -26 -12 -26 -11 0 -28 7 -38 15 -11 8 -28 15
-38 15 -10 0 -18 7 -18 15 0 9 -12 27 -27 41 -34 31 -41 64 -13 57 11 -3 20
-9 20 -14 0 -5 7 -9 15 -9 8 0 15 9 15 20 0 11 -5 20 -12 20 -9 0 -9 3 1 13 6
6 17 12 24 12 15 0 21 29 13 61 -5 20 -11 24 -28 18 -18 -5 -20 -3 -16 20 8
41 -21 51 -110 41 -66 -8 -108 -40 -97 -74 5 -15 13 -21 28 -19 28 4 35 28 8
28 -26 0 -27 26 -2 40 31 16 35 12 10 -10 l-24 -19 23 -1 c12 0 22 -6 22 -13
0 -23 -23 -37 -60 -37 -23 0 -30 3 -21 9 9 6 10 11 2 15 -6 4 -13 1 -16 -6 -9
-29 -10 -47 0 -45 6 1 9 5 7 10 -1 4 5 7 13 7 8 0 15 -6 15 -14 0 -8 7 -13 16
-12 11 0 18 -7 19 -22 3 -43 22 -46 22 -3 0 22 -3 38 -8 36 -4 -3 -10 -1 -14
5 -3 5 3 10 14 10 18 0 21 7 23 53 1 28 4 5 7 -53 6 -96 8 -105 26 -105 18 0
20 8 25 105 3 58 8 104 13 103 4 -2 16 -3 28 -3 17 0 20 -4 15 -23 -3 -13 0
-32 8 -43 12 -15 16 -16 30 -5 9 8 16 9 16 3 0 -19 -43 -26 -55 -9 -9 13 -14
14 -23 5 -17 -17 -16 6 1 32 10 17 9 22 -3 30 -13 8 -15 -5 -18 -92 -1 -56 -7
-108 -13 -114 -6 -7 -8 -18 -4 -24 10 -16 -11 -12 -25 5 -9 11 -15 13 -20 5
-16 -25 14 -195 32 -184 5 3 6 15 3 27 -5 18 -4 19 5 5 14 -22 3 -47 -24 -53
-52 -11 -141 0 -173 23 -17 12 -38 19 -46 16 -21 -8 -31 13 -14 31 10 9 26 12
50 8 20 -3 52 -2 72 1 35 7 37 9 33 42 -2 19 0 34 4 34 10 0 4 72 -7 90 -3 6
-11 8 -16 5 -12 -8 -12 -62 1 -70 11 -7 4 -25 -9 -25 -5 0 -26 14 -47 31 l-38
30 -9 -23 c-12 -33 -37 -58 -59 -58 -19 0 -24 -15 -8 -25 25 -15 9 -45 -34
-65 -53 -24 -60 -25 -53 -6 4 10 1 13 -9 9 -18 -7 -86 25 -79 37 3 5 -4 11
-15 15 -16 5 -19 12 -14 28 4 12 12 25 18 29 8 5 7 8 -2 8 -7 0 -11 4 -8 9 6
9 -16 21 -40 21 -12 0 -14 -41 -14 -250 l0 -250 750 0 750 0 0 285 0 286 -35
-28 c-19 -15 -33 -33 -31 -40 5 -12 -48 -38 -61 -30 -5 3 -15 1 -23 -5 -12 -8
-12 -9 3 -4 16 5 16 4 0 -20 -14 -22 -21 -25 -55 -20 -38 5 -47 -1 -27 -21 7
-7 4 -12 -11 -16 -19 -5 -50 15 -50 33 0 20 13 40 26 40 8 0 14 7 14 15 0 11
7 14 25 9 l25 -6 0 120 c0 106 -2 121 -17 125 -17 4 -17 5 0 6 28 2 18 45 -11
49 -34 5 -74 -24 -70 -51 2 -17 -2 -22 -21 -22 -20 0 -26 8 -38 49 -8 26 -11
51 -7 55 4 3 9 0 11 -6 3 -7 12 -13 22 -13 9 0 22 -5 27 -10 16 -16 52 15 39
33 -5 8 -18 26 -28 39 -15 21 -16 30 -6 51 16 34 5 59 -23 55 -17 -2 -22 -9
-20 -24 2 -14 -5 -24 -22 -32 -29 -13 -41 -2 -31 28 4 12 -1 26 -14 39 -12 12
-21 34 -21 51 0 27 -3 30 -29 30 -17 0 -33 5 -36 10 -12 20 -37 -19 -31 -48 5
-18 4 -22 -3 -13 -5 7 -13 11 -18 8 -5 -3 -10 9 -11 26 -3 39 -19 58 -32 37
-6 -8 -8 -21 -5 -27 3 -7 8 -21 12 -30 6 -17 6 -17 -10 -1 -17 16 -47 15 -47
-2 0 -5 -9 -6 -19 -3 -25 6 -35 45 -16 59 8 6 12 14 8 17 -9 10 -21 8 -28 -4z
m45 -100 c0 -5 -4 -9 -10 -9 -5 0 -10 7 -10 16 0 8 5 12 10 9 6 -3 10 -10 10
-16z m180 -14 c0 -30 -15 -33 -23 -5 -4 16 1 23 21 29 1 1 2 -10 2 -24z m17
-37 c-3 -8 -6 -5 -6 6 -1 11 2 17 5 13 3 -3 4 -12 1 -19z m19 -75 c-2 -3 -9
-2 -15 2 -8 4 -7 13 1 28 l13 22 3 -23 c2 -13 1 -26 -2 -29z m-306 33 c0 -3
-4 -8 -10 -11 -5 -3 -10 -1 -10 4 0 6 5 11 10 11 6 0 10 -2 10 -4z m414 -85
c-2 -2 -7 10 -10 28 -4 18 -14 35 -22 39 -13 4 -12 7 4 12 16 6 20 1 25 -34 4
-23 5 -43 3 -45z m-176 49 c-1 -24 -5 -30 -23 -30 -22 0 -35 17 -35 46 0 9 11
14 29 14 26 0 30 -3 29 -30z m-73 10 c3 -5 -3 -10 -14 -10 -11 0 -27 -7 -35
-16 -11 -10 -16 -11 -16 -3 0 26 52 49 65 29z m285 -51 c0 -6 -4 -7 -10 -4 -5
3 -10 11 -10 16 0 6 5 7 10 4 6 -3 10 -11 10 -16z m-111 -25 c21 1 26 -5 32
-34 4 -19 4 -39 -2 -44 -14 -15 -11 -36 5 -36 8 0 17 6 19 13 4 7 6 6 6 -4 1
-9 7 -22 15 -28 8 -7 14 -20 14 -29 0 -9 3 -32 7 -49 7 -32 6 -33 -24 -33 -19
0 -34 -6 -38 -15 -5 -14 -8 -14 -24 1 -38 34 -15 112 29 97 8 -3 10 1 6 11 -7
19 -16 20 -32 4 -9 -9 -11 5 -7 67 l4 79 -24 -29 c-13 -17 -24 -24 -25 -17 0
6 5 12 10 12 6 0 10 5 10 11 0 6 -6 9 -14 6 -8 -3 -17 0 -20 8 -5 14 15 27 24
15 3 -4 16 -7 29 -6z m-482 -170 c-3 -3 -12 -4 -19 -1 -8 3 -5 6 6 6 11 1 17
-2 13 -5z m654 -77 c-10 -9 -11 -8 -5 6 3 10 9 15 12 12 3 -3 0 -11 -7 -18z
m-741 -92 c0 -5 -5 -3 -10 5 -5 8 -10 20 -10 25 0 6 5 3 10 -5 5 -8 10 -19 10
-25z m577 19 c3 -9 -2 -29 -11 -45 -16 -26 -16 -30 -1 -35 8 -4 23 -4 34 -1
14 3 17 0 13 -20 -3 -17 -8 -21 -16 -14 -8 7 -23 7 -42 2 -29 -9 -29 -9 11
-12 22 -1 48 -1 58 -1 11 1 17 -3 14 -10 -2 -7 -13 -12 -23 -11 -10 1 -41 -4
-69 -11 -27 -8 -72 -14 -98 -13 -30 0 -52 -5 -57 -13 -5 -9 -29 -12 -76 -10
-38 2 -94 2 -124 2 -35 0 -48 2 -36 7 18 7 18 8 -5 14 l-24 7 23 16 c22 15 24
15 35 -1 16 -20 47 -10 47 15 0 11 4 21 10 25 5 3 7 12 3 20 -3 9 1 15 8 15 8
1 32 9 54 20 51 25 76 25 108 0 16 -12 40 -20 65 -20 44 0 65 17 38 32 -24 13
-20 46 7 51 42 8 48 7 54 -9z m-277 -12 c0 -5 -9 -17 -20 -27 -22 -20 -26 -14
-10 16 11 19 30 26 30 11z m-56 -18 c9 -24 7 -28 -9 -14 -17 14 -20 30 -6 30
5 0 12 -7 15 -16z m-237 -36 c-3 -7 -5 -2 -5 12 0 14 2 19 5 13 2 -7 2 -19 0
-25z m80 10 c-3 -8 -6 -5 -6 6 -1 11 2 17 5 13 3 -3 4 -12 1 -19z m500 -14
c-3 -3 -12 -4 -19 -1 -8 3 -5 6 6 6 11 1 17 -2 13 -5z m213 -2 c0 -5 -11 -14
-25 -20 -16 -7 -25 -8 -25 -1 0 5 10 14 23 19 29 11 27 11 27 2z m-125 -44
c-19 -11 -30 -5 -21 11 4 6 14 7 22 4 15 -5 14 -7 -1 -15z m-605 -2 c0 -8 -9
-24 -20 -37 l-19 -24 11 38 c11 36 28 51 28 23z m-335 -6 c4 -6 -6 -10 -22 -9
-25 0 -26 1 -8 9 11 5 21 9 22 9 1 1 5 -3 8 -9z m893 -80 c-7 -11 -18 -20 -25
-20 -7 0 -13 -4 -13 -10 0 -5 -10 -15 -22 -21 l-23 -11 23 21 c12 12 22 26 22
32 0 7 26 23 48 28 1 1 -3 -8 -10 -19z m-491 -144 c13 13 17 13 24 2 7 -11 9
-11 9 0 0 7 5 10 11 7 5 -4 9 -14 7 -22 -4 -23 -75 -24 -81 -1 -3 9 -2 20 2
23 3 4 7 0 9 -9 3 -15 5 -15 19 0z m102 -13 c-2 -28 -2 -28 -7 -3 -4 23 -5 24
-13 5 -7 -19 -8 -19 -8 3 -1 13 5 22 14 22 10 0 15 -9 14 -27z m34 0 c-5 -12
-7 -12 -14 -1 -13 20 -11 28 5 22 8 -3 12 -12 9 -21z m62 17 c8 -13 -24 -40
-39 -34 -20 8 -8 40 14 41 11 1 22 -2 25 -7z"/>
<path d="M1161 594 c0 -11 3 -14 6 -6 3 7 2 16 -1 19 -3 4 -6 -2 -5 -13z"/>
<path d="M494 1015 c0 -14 4 -25 8 -25 9 0 16 23 10 38 -8 21 -20 13 -18 -13z"/>
<path d="M650 1011 c0 -12 -6 -21 -13 -21 -27 0 -50 -37 -41 -64 11 -33 28
-34 32 -2 3 22 32 47 32 27 0 -5 -6 -11 -12 -13 -9 -3 -7 -10 6 -23 23 -24 48
-10 57 32 5 24 2 30 -10 29 -10 -1 -15 8 -16 24 0 15 -7 26 -17 28 -13 2 -18
-3 -18 -17z"/>
<path d="M0 990 c0 -11 5 -20 10 -20 6 0 10 9 10 20 0 11 -4 20 -10 20 -5 0
-10 -9 -10 -20z"/>
<path d="M500 949 c0 -4 -9 -11 -21 -14 -19 -7 -20 -7 -2 -21 10 -7 13 -14 6
-14 -6 0 -9 -9 -6 -20 6 -21 -20 -29 -32 -10 -8 13 -42 13 -47 -1 -6 -18 -43
4 -43 26 0 11 -7 20 -15 20 -11 0 -14 -9 -12 -35 4 -44 -22 -71 -76 -79 -31
-5 -37 -11 -40 -34 -3 -23 0 -27 22 -27 29 0 35 16 9 23 -10 3 -3 5 15 6 17 0
32 6 32 12 0 16 63 75 79 74 15 0 34 -49 23 -59 -14 -14 -22 -4 -17 22 5 26 5
25 -12 -6 -9 -18 -27 -35 -40 -38 -29 -8 -30 -32 0 -43 27 -10 48 -3 65 21 16
22 29 23 29 3 0 -8 -4 -15 -8 -15 -4 0 -9 -7 -13 -15 -3 -9 9 -4 29 12 19 16
35 37 35 48 0 16 -2 17 -10 5 -5 -8 -12 -12 -15 -8 -10 10 25 37 41 31 10 -4
17 2 21 16 3 11 9 18 14 16 4 -3 5 -13 2 -22 -5 -12 -2 -15 10 -10 10 4 23 -3
36 -18 21 -28 38 -31 64 -11 26 20 21 28 -14 21 -22 -5 -29 -4 -25 4 4 6 14
11 22 11 9 0 14 11 14 30 0 35 -13 39 -33 10 l-14 -21 -6 21 c-3 11 -1 23 4
26 15 9 10 27 -5 21 -10 -4 -16 2 -18 20 -2 19 -9 27 -25 28 -13 1 -23 -2 -23
-6z m20 -64 c-7 -8 -17 -15 -23 -15 -6 0 -2 8 9 19 22 21 33 19 14 -4z"/>
<path d="M496 787 c-17 -12 -15 -14 18 -15 32 -1 35 0 22 13 -18 18 -18 18
-40 2z"/>
<path d="M1440 769 c0 -5 6 -9 13 -9 8 0 7 -4 -3 -10 -13 -9 -13 -11 0 -20 11
-7 12 -10 2 -10 -8 0 -11 -7 -8 -18 3 -9 -2 -33 -13 -52 -18 -35 -34 -130 -22
-130 11 0 55 33 73 55 14 16 17 36 15 104 -2 83 -3 85 -29 92 -16 4 -28 3 -28
-2z"/>
<path d="M668 748 c15 -15 16 -146 2 -184 -9 -24 -14 -26 -45 -21 -21 4 -33 2
-30 -4 4 -5 19 -9 35 -9 37 0 59 31 62 85 1 38 1 39 5 6 6 -42 -12 -86 -40
-99 -21 -10 -21 -11 4 -11 15 -1 30 -8 33 -17 4 -9 9 -14 12 -11 3 3 0 15 -6
27 -10 18 -10 21 2 14 22 -14 37 -13 31 2 -3 8 -9 12 -13 9 -16 -10 -19 12 -5
39 13 24 12 32 -2 67 -23 58 -10 57 17 -1 13 -28 27 -50 32 -50 15 0 33 51 21
58 -6 4 -20 26 -32 49 -22 43 -46 63 -77 63 -14 0 -15 -3 -6 -12z"/>
<path d="M645 741 c3 -5 1 -12 -5 -16 -5 -3 -10 -10 -10 -16 0 -5 9 -4 20 3
24 15 25 24 4 32 -8 3 -12 2 -9 -3z"/>
<path d="M290 720 c0 -5 5 -10 11 -10 5 0 7 5 4 10 -3 6 -8 10 -11 10 -2 0 -4
-4 -4 -10z"/>
<path d="M224 675 c1 -24 5 -48 9 -52 4 -3 7 -2 7 4 0 6 6 13 14 16 19 8 10
-61 -12 -85 -13 -15 -13 -18 -1 -18 18 0 46 32 51 57 2 10 13 19 26 21 12 2
22 9 22 16 0 19 -62 73 -92 80 -26 6 -27 5 -24 -39z m55 3 c-1 -19 -2 -19 -6
-5 -3 11 -11 16 -19 13 -9 -3 -12 -1 -9 4 12 19 35 10 34 -12z"/>
<path d="M345 710 c-8 -13 5 -13 25 0 13 8 13 10 -2 10 -9 0 -20 -4 -23 -10z"/>
<path d="M1020 678 c-15 -6 -20 -12 -12 -15 8 -3 12 -27 12 -69 0 -57 2 -64
20 -64 16 0 20 7 21 38 1 20 2 52 4 69 3 40 -12 54 -45 41z"/>
<path d="M340 599 c0 -5 -5 -7 -12 -3 -7 4 -8 3 -4 -4 10 -17 36 -15 36 3 0 8
-4 15 -10 15 -5 0 -10 -5 -10 -11z"/>
<path d="M396 592 c-3 -6 -1 -14 5 -17 15 -10 25 3 12 16 -7 7 -13 7 -17 1z"/>
<path d="M467 445 c-6 -28 -10 -93 -8 -122 1 -7 8 -13 16 -13 14 0 20 14 15
35 -2 6 -6 37 -9 70 -6 51 -8 56 -14 30z"/>
</g>
</svg>
